
<svg width="100%" height="100%" viewBox="0 0 60 59" fill="none" xmlns="http://www.w3.org/2000/svg">
<path d="M56.9049 58.9993C57.986 58.9947 58.9587 58.3419 59.3721 57.3431C59.7845 56.3433 59.5573 55.1939 58.7951 54.4279L5.16609 0.798976C4.11865 -0.249398 2.42024 -0.249398 1.37184 0.798976C0.324402 1.84642 0.324402 3.54483 1.37184 4.59322L55.0008 58.2222C55.5068 58.7235 56.1923 59.004 56.9049 58.9993Z" fill="white"/>
<path d="M3.27574 59C3.98556 58.9972 4.66547 58.7129 5.1658 58.2088L58.7948 4.57983C59.8431 3.53239 59.8431 1.83398 58.7948 0.785581C57.7473 -0.26186 56.0489 -0.26186 55.0005 0.785581L1.37155 54.4146C0.598123 55.1824 0.366202 56.3411 0.783311 57.3474C1.20135 58.3527 2.18626 59.0066 3.27574 59Z" fill="white"/>
</svg>
