<svg width="602" height="592" viewBox="0 0 602 592" fill="none" xmlns="http://www.w3.org/2000/svg">
<path d="M373.773 157.646L414.898 0H187.34L229.836 157.646L95.4939 42.4958L0.90625 216.592L184.598 263.2L0.90625 312.55L95.4939 486.646L232.577 375.609L187.34 534.626H414.898L372.402 375.609L508.115 486.646L601.332 312.55L416.269 263.2L601.332 216.592L508.115 42.4958L373.773 157.646Z" fill="#6B4FFD"/>
<path d="M396 317C396 330.255 356 340.5 301.5 322C249.5 337.5 207 330.255 207 317C207 303.745 240.5 283.5 301.5 298.5C365 283.5 396 303.745 396 317Z" fill="black"/>
<path d="M538.74 427.999C525.999 428.969 514.091 436.172 507.759 448.179C501.427 460.187 502.209 474.081 508.605 485.144" stroke="black" stroke-width="2.60963"/>
<path d="M568.877 370.855C556.135 371.826 544.228 379.028 537.896 391.036C531.564 403.043 532.346 416.938 538.742 428" stroke="black" stroke-width="2.60963"/>
<path d="M599.014 313.71C586.272 314.68 574.365 321.882 568.032 333.89C561.7 345.897 562.483 359.792 568.879 370.854" stroke="black" stroke-width="2.60963"/>
<path d="M65.0847 427.494C77.8394 428.276 89.8519 435.302 96.3603 447.215C102.869 459.128 102.292 473.032 96.0594 484.188" stroke="black" stroke-width="2.60963"/>
<path d="M34.1043 370.801C46.8589 371.583 58.8714 378.609 65.3799 390.522C71.8884 402.435 71.3111 416.339 65.0789 427.495" stroke="black" stroke-width="2.60963"/>
<path d="M3.13162 314.105C15.8863 314.888 27.8987 321.914 34.4072 333.827C40.9157 345.74 40.3385 359.644 34.1062 370.8" stroke="black" stroke-width="2.60963"/>
<path d="M414 500L187 502L257.5 291.5H349.5L414 500Z" fill="#6B4FFD"/>
<path d="M186.5 501.5L258.547 285.275" stroke="black" stroke-width="2.60963"/>
<path d="M348.578 284.275L415.5 504.5" stroke="black" stroke-width="2.60963"/>
<ellipse cx="300.5" cy="516.5" rx="116.5" ry="73.5" fill="#6B4FFD" stroke="black" stroke-width="2.61"/>
<path d="M259.188 461.516C259.188 461.516 266.8 465.566 277.974 469.256C289.147 472.947 297.053 474.024 297.053 474.024" stroke="black" stroke-width="2.61"/>
<path d="M250.484 474.92C250.484 474.92 259.368 479.961 272.537 484.311C285.706 488.661 295.113 489.662 295.113 489.662" stroke="black" stroke-width="2.61"/>
<path d="M241.664 488.857C241.664 488.857 251.539 496.332 266.95 501.422C282.36 506.513 293.889 506.108 293.889 506.108" stroke="black" stroke-width="2.61"/>
<path d="M231.273 504.381C231.273 504.381 242.97 512.457 260.902 518.381C278.834 524.304 292.044 524.455 292.044 524.455" stroke="black" stroke-width="2.61"/>
<path d="M220.879 519.904C220.879 519.904 234.063 531.631 255.357 538.665C276.652 545.699 293.044 543.742 293.044 543.742" stroke="black" stroke-width="2.61"/>
<path d="M210.496 538.59C210.496 538.59 225.703 550.986 249.8 558.945C273.896 566.905 292.156 565.565 292.156 565.565" stroke="black" stroke-width="2.61"/>
<path d="M361.203 453.333C361.203 453.333 355.53 458.038 346.551 462.022C337.572 466.005 330.775 466.833 330.775 466.833" stroke="black" stroke-width="2.61"/>
<path d="M374.961 465C374.961 465 367.352 471.404 355.261 476.769C343.171 482.133 333.988 483.179 333.988 483.179" stroke="black" stroke-width="2.61"/>
<path d="M384.281 478.762C384.281 478.762 375.587 486.996 361.302 493.334C347.017 499.672 335.872 500.241 335.872 500.241" stroke="black" stroke-width="2.61"/>
<path d="M398.613 493.208C398.613 493.208 387.214 502.642 369.185 510.641C351.156 518.64 337.514 520.317 337.514 520.317" stroke="black" stroke-width="2.61"/>
<path d="M409.809 509.528C409.809 509.528 396.333 520.126 375.304 529.456C354.275 538.787 338.544 541.148 338.544 541.148" stroke="black" stroke-width="2.61"/>
<path d="M416.059 526.36C416.059 526.36 402.145 540.191 378.948 550.483C355.752 560.775 337.449 561.238 337.449 561.238" stroke="black" stroke-width="2.61"/>
</svg>
