<svg width="602" height="592" viewBox="0 0 602 592" fill="none" xmlns="http://www.w3.org/2000/svg">
    <path
        d="M373.773 157.646L414.898 0H187.34L229.836 157.646L95.4939 42.4958L0.90625 216.592L184.598 263.2L0.90625 312.55L95.4939 486.646L232.577 375.609L187.34 534.626H414.898L372.402 375.609L508.115 486.646L601.332 312.55L416.269 263.2L601.332 216.592L508.115 42.4958L373.773 157.646Z"
        fill="#6B4FFD" />
    <path
        d="M538.74 427.999C525.999 428.969 514.091 436.172 507.759 448.179C501.427 460.187 502.209 474.081 508.605 485.144"
        stroke="black" stroke-width="2.60963" />
    <path
        d="M568.881 370.855C556.139 371.826 544.232 379.028 537.9 391.036C531.568 403.043 532.35 416.938 538.746 428"
        stroke="black" stroke-width="2.60963" />
    <path
        d="M599.049 313.709C586.307 314.68 574.4 321.882 568.068 333.89C561.735 345.897 562.518 359.792 568.914 370.854"
        stroke="black" stroke-width="2.60963" />
    <path
        d="M65.0887 427.494C77.8433 428.276 89.8558 435.302 96.3643 447.215C102.873 459.128 102.295 473.032 96.0633 484.188"
        stroke="black" stroke-width="2.60963" />
    <path
        d="M34.1082 370.801C46.8628 371.583 58.8753 378.609 65.3838 390.522C71.8923 402.435 71.315 416.339 65.0828 427.495"
        stroke="black" stroke-width="2.60963" />
    <path
        d="M3.13553 314.105C15.8902 314.888 27.9026 321.914 34.4111 333.827C40.9196 345.74 40.3424 359.644 34.1101 370.8"
        stroke="black" stroke-width="2.60963" />
    <path d="M186.352 534.8L258.551 284.275" stroke="black" stroke-width="2.60963" />
    <path d="M348.582 284.275L414.693 532.19" stroke="black" stroke-width="2.60963" />
    <path d="M187.504 535.5L257.504 291.5H349.504L414.004 535.5H187.504Z" fill="#6B4FFD" />
    <path d="M413 526L415.5 535H186L189 525.5" stroke="black" stroke-width="2.61" />
    <path
        d="M204.57 299.672C204.57 299.672 207.18 307.936 207.18 314.025M204.57 328.378C204.57 328.378 207.18 320.114 207.18 314.025M207.18 314.025C224.675 314.025 250.674 314.025 250.674 314.025"
        stroke="black" stroke-width="2.60963" />
    <path
        d="M402.031 299.672C402.031 299.672 399.422 308.42 399.422 314.025M402.031 328.378C402.031 328.378 399.422 319.631 399.422 314.025M399.422 314.025C381.417 314.025 355.928 314.025 355.928 314.025"
        stroke="black" stroke-width="2.60963" />
</svg>